# xmcd CD database file generated by Grip 3.2.0
# 
# Track frame offsets:
#       150
#       20493
#       41272
#       79202
#       100279
#       121794
#       136160
#       158859
#       193657
#       211410
# 
# Disc length: 3235 seconds
# 
# Revision: 3
# Processed by: cddbd v1.5.1PL0 Copyright (c) Steve Scherf et al.
# Submitted via: Grip 3.2.0
# 
DISCID=7d0ca10a
DTITLE=Buddy Guy - Damn Right, I've Got The Blues
DYEAR=1991
DGENRE=Blues
TTITLE0=Damn Right, I've Got The Blues
TTITLE1=Where Is The Next One Coming From
TTITLE2=Five Long Years
TTITLE3=Mustang Sally
TTITLE4=There Is Something On Your Mind
TTITLE5=Early In The Morning
TTITLE6=Too Broke To Spend The Night
TTITLE7=Black Night
TTITLE8=Let Me Love You Baby
TTITLE9=Rememberin' Stevie
EXTD=YEAR: 1991
EXTT0=
EXTT1=
EXTT2=
EXTT3=
EXTT4=
EXTT5=
EXTT6=
EXTT7=
EXTT8=
EXTT9=
PLAYORDER=
